<svg width="93" height="92" viewBox="0 0 93 92" fill="none" xmlns="http://www.w3.org/2000/svg">
<path d="M30.7778 41.2466H28.5545C25.5204 41.137 22.4962 41.652 19.6695 42.7599C16.8427 43.8677 14.2739 45.5446 12.1222 47.6866L11.5089 48.4022V69.5622H21.9356V57.5511L23.3411 55.9666L23.98 55.2255C27.3072 51.8075 31.4493 49.2923 36.0167 47.9166C33.73 46.1766 31.9265 43.8805 30.7778 41.2466Z" fill="#52247F"/>
<path d="M80.2022 47.61C78.0506 45.468 75.4817 43.791 72.655 42.6832C69.8283 41.5754 66.804 41.0603 63.77 41.17C62.8394 41.1726 61.9096 41.2238 60.9844 41.3233C59.8142 43.7943 58.06 45.9432 55.8733 47.5844C60.7492 48.9334 65.1663 51.5836 68.6511 55.2511L69.29 55.9666L70.67 57.5511V69.5878H80.7388V48.3255L80.2022 47.61Z" fill="#52247F"/>
<path d="M28.4778 36.2634H29.27C28.9019 33.1028 29.4565 29.9032 30.8668 27.0509C32.2771 24.1985 34.4828 21.8153 37.2178 20.189C36.2264 18.6744 34.8586 17.4433 33.2485 16.6162C31.6383 15.789 29.841 15.3942 28.0324 15.4705C26.2238 15.5467 24.4661 16.0913 22.9312 17.0509C21.3964 18.0106 20.1371 19.3524 19.2766 20.945C18.4162 22.5376 17.9841 24.3264 18.0226 26.1361C18.0612 27.9459 18.5691 29.7146 19.4967 31.2691C20.4242 32.8236 21.7395 34.1105 23.3139 35.0039C24.8882 35.8973 26.6676 36.3665 28.4778 36.3656V36.2634Z" fill="#52247F"/>
<path d="M62.5433 34.3467C62.5743 34.934 62.5743 35.5226 62.5433 36.11C63.0337 36.1877 63.529 36.2304 64.0255 36.2378H64.511C66.3133 36.1417 68.0599 35.5806 69.5809 34.6091C71.1019 33.6376 72.3454 32.2888 73.1904 30.694C74.0353 29.0993 74.453 27.3129 74.4027 25.5089C74.3523 23.7048 73.8357 21.9445 72.9031 20.3993C71.9705 18.8542 70.6538 17.5768 69.081 16.6917C67.5082 15.8065 65.733 15.3436 63.9282 15.3482C62.1234 15.3527 60.3506 15.8245 58.7823 16.7176C57.214 17.6107 55.9036 18.8946 54.9788 20.4444C57.2918 21.9546 59.1937 24.0153 60.514 26.4417C61.8342 28.8681 62.5315 31.5843 62.5433 34.3467Z" fill="#52247F"/>
<path d="M45.7789 45.7954C52.0879 45.7954 57.2023 40.681 57.2023 34.3721C57.2023 28.0631 52.0879 22.9487 45.7789 22.9487C39.47 22.9487 34.3556 28.0631 34.3556 34.3721C34.3556 40.681 39.47 45.7954 45.7789 45.7954Z" fill="#52247F"/>
<path d="M46.3922 51.8776C43.0548 51.7429 39.7246 52.2847 36.602 53.4705C33.4794 54.6563 30.6289 56.4616 28.2222 58.7776L27.5833 59.4932V75.6699C27.5933 76.1968 27.707 76.7166 27.9179 77.1996C28.1288 77.6825 28.4328 78.1192 28.8125 78.4847C29.1922 78.8502 29.6402 79.1372 30.1308 79.3295C30.6215 79.5218 31.1453 79.6156 31.6722 79.6054H61.0355C61.5625 79.6156 62.0862 79.5218 62.5769 79.3295C63.0676 79.1372 63.5156 78.8502 63.8953 78.4847C64.275 78.1192 64.579 77.6825 64.7899 77.1996C65.0008 76.7166 65.1144 76.1968 65.1244 75.6699V59.5443L64.5111 58.7776C62.1199 56.4544 59.2794 54.6441 56.1638 53.4576C53.0481 52.2711 49.723 51.7335 46.3922 51.8776Z" fill="#52247F"/>
</svg>
