<svg width="75" height="74" viewBox="0 0 75 74" fill="none" xmlns="http://www.w3.org/2000/svg">
<path d="M63.7048 22.041H45.2048V13.875C45.2048 12.5959 44.1714 11.5625 42.8923 11.5625H13.408V8.67188C13.408 8.35391 13.1478 8.09375 12.8298 8.09375H8.78296C8.46499 8.09375 8.20483 8.35391 8.20483 8.67188V65.3281C8.20483 65.6461 8.46499 65.9062 8.78296 65.9062H12.8298C13.1478 65.9062 13.408 65.6461 13.408 65.3281V46.25H31.3298V54.416C31.3298 55.6951 32.3632 56.7285 33.6423 56.7285H63.7048C64.9839 56.7285 66.0173 55.6951 66.0173 54.416V24.3535C66.0173 23.0744 64.9839 22.041 63.7048 22.041Z" fill="#52247F"/>
</svg>
