<svg width="50" height="62" viewBox="0 0 50 62" fill="none" xmlns="http://www.w3.org/2000/svg">
<g filter="url(#filter0_d)">
<path d="M24.6111 0C13.2893 0 4.11108 9.11345 4.11108 20.3555C4.11108 24.1151 4.85219 27.9981 6.97895 30.7969L24.6111 54L42.2432 30.7969C44.175 28.2548 45.1111 23.7609 45.1111 20.3555C45.1111 9.11345 35.9329 0 24.6111 0ZM24.6111 11.7894C29.3749 11.7894 33.238 15.6253 33.238 20.3554C33.238 25.0857 29.3749 28.9215 24.6111 28.9215C19.8473 28.9215 15.9843 25.0857 15.9843 20.3555C15.9843 15.6253 19.8473 11.7894 24.6111 11.7894Z" fill="#52247F"/>
</g>
<defs>
<filter id="filter0_d" x="0.111084" y="0" width="49" height="62" filterUnits="userSpaceOnUse" color-interpolation-filters="sRGB">
<feFlood flood-opacity="0" result="BackgroundImageFix"/>
<feColorMatrix in="SourceAlpha" type="matrix" values="0 0 0 0 0 0 0 0 0 0 0 0 0 0 0 0 0 0 127 0"/>
<feOffset dy="4"/>
<feGaussianBlur stdDeviation="2"/>
<feColorMatrix type="matrix" values="0 0 0 0 0 0 0 0 0 0 0 0 0 0 0 0 0 0 0.5 0"/>
<feBlend mode="normal" in2="BackgroundImageFix" result="effect1_dropShadow"/>
<feBlend mode="normal" in="SourceGraphic" in2="effect1_dropShadow" result="shape"/>
</filter>
</defs>
</svg>
